<svg version="1.1" xmlns="http://www.w3.org/2000/svg" xmlns:xlink="http://www.w3.org/1999/xlink" width="16" height="16" viewBox="0,0,256,256"><g fill="#ffffff" fill-rule="evenodd" stroke="none" stroke-width="1" stroke-linecap="butt" stroke-linejoin="miter" stroke-miterlimit="10" stroke-dasharray="" stroke-dashoffset="0" font-family="none" font-weight="none" font-size="none" text-anchor="none" style="mix-blend-mode: normal"><g transform="translate(0.00505,12) scale(16,16)"><path d="M5,11.5c0,-0.27614 0.22386,-0.5 0.5,-0.5h9c0.27614,0 0.5,0.22386 0.5,0.5c0,0.27614 -0.22386,0.5 -0.5,0.5h-9c-0.27614,0 -0.5,-0.22386 -0.5,-0.5zM5,7.5c0,-0.27614 0.22386,-0.5 0.5,-0.5h9c0.27614,0 0.5,0.22386 0.5,0.5c0,0.27614 -0.22386,0.5 -0.5,0.5h-9c-0.27614,0 -0.5,-0.22386 -0.5,-0.5zM5,3.5c0,-0.27614 0.22386,-0.5 0.5,-0.5h9c0.27614,0 0.5,0.22386 0.5,0.5c0,0.27614 -0.22386,0.5 -0.5,0.5h-9c-0.27614,0 -0.5,-0.22386 -0.5,-0.5zM3.854,2.146c0.09404,0.0938 0.14689,0.22117 0.14689,0.354c0,0.13283 -0.05285,0.2602 -0.14689,0.354l-1.5,1.5c-0.0938,0.09404 -0.22117,0.14689 -0.354,0.14689c-0.13283,0 -0.2602,-0.05285 -0.354,-0.14689l-0.5,-0.5c-0.19551,-0.19551 -0.19551,-0.51249 0,-0.708c0.19551,-0.19551 0.51249,-0.19551 0.708,0l0.146,0.147l1.146,-1.147c0.0938,-0.09404 0.22117,-0.14689 0.354,-0.14689c0.13283,0 0.2602,0.05285 0.354,0.14689zM3.854,6.146c0.09404,0.0938 0.14689,0.22117 0.14689,0.354c0,0.13283 -0.05285,0.2602 -0.14689,0.354l-1.5,1.5c-0.0938,0.09404 -0.22117,0.14689 -0.354,0.14689c-0.13283,0 -0.2602,-0.05285 -0.354,-0.14689l-0.5,-0.5c-0.19551,-0.19551 -0.19551,-0.51249 0,-0.708c0.19551,-0.19551 0.51249,-0.19551 0.708,0l0.146,0.147l1.146,-1.147c0.0938,-0.09404 0.22117,-0.14689 0.354,-0.14689c0.13283,0 0.2602,0.05285 0.354,0.14689zM3.854,10.146c0.09404,0.0938 0.14689,0.22117 0.14689,0.354c0,0.13283 -0.05285,0.2602 -0.14689,0.354l-1.5,1.5c-0.0938,0.09404 -0.22117,0.14689 -0.354,0.14689c-0.13283,0 -0.2602,-0.05285 -0.354,-0.14689l-0.5,-0.5c-0.19551,-0.19551 -0.19551,-0.51249 0,-0.708c0.19551,-0.19551 0.51249,-0.19551 0.708,0l0.146,0.147l1.146,-1.147c0.0938,-0.09404 0.22117,-0.14689 0.354,-0.14689c0.13283,0 0.2602,0.05285 0.354,0.14689z"></path></g></g></svg>