<svg version="1.1" xmlns="http://www.w3.org/2000/svg" xmlns:xlink="http://www.w3.org/1999/xlink" width="16" height="16" viewBox="0,0,256,256"><g fill="#ffffff" fill-rule="nonzero" stroke="none" stroke-width="1" stroke-linecap="butt" stroke-linejoin="miter" stroke-miterlimit="10" stroke-dasharray="" stroke-dashoffset="0" font-family="none" font-weight="none" font-size="none" text-anchor="none" style="mix-blend-mode: normal"><g transform="translate(0,0.007) scale(16,16)"><path d="M8,16c1.10457,0 2,-0.89543 2,-2h-4c0,1.10457 0.89543,2 2,2zM8.995,1.099c0.03807,-0.3793 -0.14281,-0.74725 -0.4664,-0.94875c-0.32359,-0.2015 -0.7336,-0.2015 -1.05719,0c-0.32359,0.2015 -0.50448,0.56945 -0.4664,0.94875c-2.33026,0.47398 -4.0047,2.52302 -4.005,4.901c0,1.098 -0.5,6 -2,7h14c-1.5,-1 -2,-5.902 -2,-7c0,-2.42 -1.72,-4.44 -4.005,-4.901z"></path></g></g></svg>